/* XPM */
static char * close_prelight_xpm[] = {
"16 16 17 1",
" 	c None",
".	c #2D2D2D",
"+	c #1793d1",
"@	c #116d9c",
"#	c #093b54",
"$	c #116f9e",
"%	c #168cc7",
"&	c #08344a",
"*	c #06293b",
"=	c #168ec9",
"-	c #168ac4",
";	c #093952",
">	c #1588c2",
",	c #168ac4",
"'	c #08344a",
")	c #116c99",
"!	c #062738",
"................",
"................",
"................",
"................",
"....+@#..#@+....",
"....$+%&&%+@....",
"....*=+--+%#....",
".....;=++-&.....",
".....;=++-&.....",
"....*=+>>+%#....",
"....$+,'',+@....",
"....+)!..!)+....",
"................",
"................",
"................",
"................"};
